<svg xmlns="http://www.w3.org/2000/svg" width="2048" height="1241" fill="none" viewBox="0 0 2048 1241"><path fill="url(#paint0_linear_4103_4678)" d="M1942.19 1235.64c2.74-.55 4.58-2.99 5.15-4.15h-136.48c.58 1.16 2.41 3.6 5.15 4.15.29 1.61 1.55 4.84 4.29 4.84h117.6c2.74 0 4-3.23 4.29-4.84"/><path fill="#000" fill-opacity=".3" d="M1942.06 1236.19c-.44 1.7-1.71 4.29-4.17 4.29H1820.3c-2.56 0-3.83-2.81-4.22-4.49h125.98Z"/><path fill="url(#paint1_linear_4103_4678)" d="M231.028 1235.64c2.747-.55 4.578-2.99 5.15-4.15H99.704c.572 1.16 2.403 3.6 5.149 4.15.287 1.61 1.545 4.84 4.292 4.84h117.592c2.746 0 4.005-3.23 4.291-4.84"/><path fill="#000" fill-opacity=".3" d="M230.905 1236.19c-.443 1.7-1.707 4.29-4.168 4.29H109.145c-2.561 0-3.827-2.81-4.219-4.49h125.979Z"/><mask id="mask0_4103_4678" width="2048" height="51" x="0" y="1181" maskUnits="userSpaceOnUse" style="mask-type:alpha"><path fill="#fff" d="M2048 1186.57v-5.38H0v5.38c0 15.73 0 23.59 4.406 29.6 3.875 5.28 10.058 9.57 17.664 12.26 8.647 3.06 19.966 3.06 42.604 3.06H1983.33c22.63 0 33.95 0 42.6-3.06 7.61-2.69 13.79-6.98 17.66-12.26 4.41-6.01 4.41-13.87 4.41-29.6"/></mask><g mask="url(#mask0_4103_4678)"><path fill="url(#paint2_linear_4103_4678)" d="M2048 1186.57v-5.38H0v5.38c0 15.73 0 23.59 4.406 29.6 3.875 5.28 10.058 9.57 17.664 12.26 8.647 3.06 19.966 3.06 42.604 3.06H1983.33c22.63 0 33.95 0 42.6-3.06 7.61-2.69 13.79-6.98 17.66-12.26 4.41-6.01 4.41-13.87 4.41-29.6"/><path fill="url(#paint3_linear_4103_4678)" d="M1818.05 1181.19h229.951v50.302H1818.05Z"/><path fill="url(#paint4_linear_4103_4678)" d="M0 0h231.747v50.302H0Z" transform="matrix(-1 0 0 1 231.747 1181.19)"/><g filter="url(#filter0_f_4103_4678)"><path fill="url(#paint5_linear_4103_4678)" d="M4.491 1172.21h26.05v26.5c0 7.19-5.832 13.02-13.025 13.02S4.49 1205.9 4.49 1198.71Z"/></g><g filter="url(#filter1_f_4103_4678)"><path fill="url(#paint6_linear_4103_4678)" d="M2043.51 1172.21h-26.05v26.5c0 7.19 5.83 13.02 13.02 13.02 7.2 0 13.03-5.83 13.03-13.02Z"/></g></g><path fill="url(#paint7_linear_4103_4678)" d="M839.86 1181.19h368.28c0 13.89-11.26 25.15-25.15 25.15H865.01c-13.89 0-25.15-11.26-25.15-25.15"/><g filter="url(#filter2_ii_4103_4678)"><path fill="#232122" d="M1820.74 0c33.74 0 61.08 27.347 61.08 61.081V1145.26c0 10.78-1.79 35.93-13.47 35.93h-26.05c18.85 0 34.13-15.28 34.13-34.13V61.081c0-30.757-24.93-55.691-55.69-55.691H229.05c-30.757 0-55.691 24.934-55.691 55.691V1147.06c0 18.85 15.282 34.13 34.133 34.13h-26.049c-11.677 0-13.474-25.15-13.474-35.93V61.081C167.969 27.347 195.316 0 229.05 0Z"/></g><g filter="url(#filter3_ii_4103_4678)"><path fill="url(#paint8_linear_4103_4678)" d="M1842.3 1181.19c15.85 0 28.7-14.36 28.74-32.1v-18.2H178.748V1149c0 17.78 12.869 32.19 28.744 32.19Z"/></g><g filter="url(#filter4_ii_4103_4678)"><path fill="#232122" fill-rule="evenodd" d="M1820.74 5.39H229.05c-30.758 0-55.691 24.933-55.691 55.69v1085.98c0 18.85 15.282 34.13 34.133 34.13h156.295v-1.79c0-1.99-1.609-3.6-3.593-3.6H207.492c-15.875 0-28.744-12.87-28.744-28.74V61.08c0-27.78 22.521-50.301 50.302-50.301h1591.69c27.78 0 50.3 22.52 50.3 50.302v1085.98c0 15.869-12.87 28.739-28.74 28.739h-152.7c-1.99 0-3.6 1.61-3.6 3.6v1.79h156.3c18.85 0 34.13-15.28 34.13-34.13V61.08c0-30.757-24.93-55.69-55.69-55.69" clip-rule="evenodd"/></g><path stroke="#000" stroke-width="25.5" d="M228 22.75h1593c20.57 0 37.25 16.677 37.25 37.25v1058.25H190.75V60c0-20.573 16.677-37.25 37.25-37.25Z"/><path fill="#000" d="M907.228 35.032h13.174a5.39 5.39 0 0 1 5.389 5.39v19.761c0 5.952 4.826 10.778 10.779 10.778h177.56c5.95 0 10.78-4.826 10.78-10.779V40.421c0-2.977 2.41-5.39 5.39-5.39h13.17Z"/><g filter="url(#filter5_f_4103_4678)"><circle cx="1024.9" cy="42.218" r="10.779" fill="#0f1316"/></g><g filter="url(#filter6_f_4103_4678)"><circle cx="1024.9" cy="42.218" r="8.084" fill="#080905"/></g><g filter="url(#filter7_f_4103_4678)"><ellipse cx="1024.9" cy="44.014" fill="#05111d" rx="3.593" ry="1.796"/></g><g filter="url(#filter8_f_4103_4678)"><ellipse cx="1024.9" cy="40.421" fill="#05111d" rx="3.593" ry="1.796"/></g><g filter="url(#filter9_f_4103_4678)"><ellipse cx="1024.9" cy="44.463" fill="#0f3455" rx="2.695" ry="1.347"/></g><g filter="url(#filter10_f_4103_4678)"><ellipse cx="1024.9" cy="40.421" fill="#6797bc" rx="2.695" ry="1.796"/></g><defs><filter id="filter0_f_4103_4678" width="36.828" height="50.302" x="-.898" y="1166.82" color-interpolation-filters="sRGB" filterUnits="userSpaceOnUse"><feFlood flood-opacity="0" result="BackgroundImageFix"/><feBlend in="SourceGraphic" in2="BackgroundImageFix" result="shape"/><feGaussianBlur result="effect1_foregroundBlur_4103_4678" stdDeviation="2.695"/></filter><filter id="filter1_f_4103_4678" width="36.828" height="50.302" x="2012.07" y="1166.82" color-interpolation-filters="sRGB" filterUnits="userSpaceOnUse"><feFlood flood-opacity="0" result="BackgroundImageFix"/><feBlend in="SourceGraphic" in2="BackgroundImageFix" result="shape"/><feGaussianBlur result="effect1_foregroundBlur_4103_4678" stdDeviation="2.695"/></filter><filter id="filter2_ii_4103_4678" width="1713.85" height="1182.09" x="167.969" y="0" color-interpolation-filters="sRGB" filterUnits="userSpaceOnUse"><feFlood flood-opacity="0" result="BackgroundImageFix"/><feBlend in="SourceGraphic" in2="BackgroundImageFix" result="shape"/><feColorMatrix in="SourceAlpha" result="hardAlpha" values="0 0 0 0 0 0 0 0 0 0 0 0 0 0 0 0 0 0 127 0"/><feOffset dy=".898"/><feGaussianBlur stdDeviation="1.347"/><feComposite in2="hardAlpha" k2="-1" k3="1" operator="arithmetic"/><feColorMatrix values="0 0 0 0 1 0 0 0 0 1 0 0 0 0 1 0 0 0 0.1 0"/><feBlend in2="shape" result="effect1_innerShadow_4103_4678"/><feColorMatrix in="SourceAlpha" result="hardAlpha" values="0 0 0 0 0 0 0 0 0 0 0 0 0 0 0 0 0 0 127 0"/><feOffset dy=".898"/><feGaussianBlur stdDeviation=".898"/><feComposite in2="hardAlpha" k2="-1" k3="1" operator="arithmetic"/><feColorMatrix values="0 0 0 0 0 0 0 0 0 0 0 0 0 0 0 0 0 0 0.5 0"/><feBlend in2="effect1_innerShadow_4103_4678" result="effect2_innerShadow_4103_4678"/></filter><filter id="filter3_ii_4103_4678" width="1694.09" height="51.2" x="177.85" y="1129.99" color-interpolation-filters="sRGB" filterUnits="userSpaceOnUse"><feFlood flood-opacity="0" result="BackgroundImageFix"/><feBlend in="SourceGraphic" in2="BackgroundImageFix" result="shape"/><feColorMatrix in="SourceAlpha" result="hardAlpha" values="0 0 0 0 0 0 0 0 0 0 0 0 0 0 0 0 0 0 127 0"/><feOffset dx="-.898" dy="-.898"/><feGaussianBlur stdDeviation=".898"/><feComposite in2="hardAlpha" k2="-1" k3="1" operator="arithmetic"/><feColorMatrix values="0 0 0 0 0 0 0 0 0 0 0 0 0 0 0 0 0 0 0.5 0"/><feBlend in2="shape" result="effect1_innerShadow_4103_4678"/><feColorMatrix in="SourceAlpha" result="hardAlpha" values="0 0 0 0 0 0 0 0 0 0 0 0 0 0 0 0 0 0 127 0"/><feOffset dx=".898" dy="-.898"/><feGaussianBlur stdDeviation=".898"/><feComposite in2="hardAlpha" k2="-1" k3="1" operator="arithmetic"/><feColorMatrix values="0 0 0 0 0 0 0 0 0 0 0 0 0 0 0 0 0 0 0.5 0"/><feBlend in2="effect1_innerShadow_4103_4678" result="effect2_innerShadow_4103_4678"/></filter><filter id="filter4_ii_4103_4678" width="1703.07" height="1176.7" x="173.359" y="5.389" color-interpolation-filters="sRGB" filterUnits="userSpaceOnUse"><feFlood flood-opacity="0" result="BackgroundImageFix"/><feBlend in="SourceGraphic" in2="BackgroundImageFix" result="shape"/><feColorMatrix in="SourceAlpha" result="hardAlpha" values="0 0 0 0 0 0 0 0 0 0 0 0 0 0 0 0 0 0 127 0"/><feOffset dy=".898"/><feGaussianBlur stdDeviation="1.347"/><feComposite in2="hardAlpha" k2="-1" k3="1" operator="arithmetic"/><feColorMatrix values="0 0 0 0 1 0 0 0 0 1 0 0 0 0 1 0 0 0 0.1 0"/><feBlend in2="shape" result="effect1_innerShadow_4103_4678"/><feColorMatrix in="SourceAlpha" result="hardAlpha" values="0 0 0 0 0 0 0 0 0 0 0 0 0 0 0 0 0 0 127 0"/><feOffset dy=".898"/><feGaussianBlur stdDeviation=".898"/><feComposite in2="hardAlpha" k2="-1" k3="1" operator="arithmetic"/><feColorMatrix values="0 0 0 0 0 0 0 0 0 0 0 0 0 0 0 0 0 0 0.5 0"/><feBlend in2="effect1_innerShadow_4103_4678" result="effect2_innerShadow_4103_4678"/></filter><filter id="filter5_f_4103_4678" width="25.151" height="25.151" x="1012.32" y="29.642" color-interpolation-filters="sRGB" filterUnits="userSpaceOnUse"><feFlood flood-opacity="0" result="BackgroundImageFix"/><feBlend in="SourceGraphic" in2="BackgroundImageFix" result="shape"/><feGaussianBlur result="effect1_foregroundBlur_4103_4678" stdDeviation=".898"/></filter><filter id="filter6_f_4103_4678" width="19.761" height="19.761" x="1015.01" y="32.337" color-interpolation-filters="sRGB" filterUnits="userSpaceOnUse"><feFlood flood-opacity="0" result="BackgroundImageFix"/><feBlend in="SourceGraphic" in2="BackgroundImageFix" result="shape"/><feGaussianBlur result="effect1_foregroundBlur_4103_4678" stdDeviation=".898"/></filter><filter id="filter7_f_4103_4678" width="10.779" height="7.186" x="1019.51" y="40.421" color-interpolation-filters="sRGB" filterUnits="userSpaceOnUse"><feFlood flood-opacity="0" result="BackgroundImageFix"/><feBlend in="SourceGraphic" in2="BackgroundImageFix" result="shape"/><feGaussianBlur result="effect1_foregroundBlur_4103_4678" stdDeviation=".898"/></filter><filter id="filter8_f_4103_4678" width="10.779" height="7.186" x="1019.51" y="36.828" color-interpolation-filters="sRGB" filterUnits="userSpaceOnUse"><feFlood flood-opacity="0" result="BackgroundImageFix"/><feBlend in="SourceGraphic" in2="BackgroundImageFix" result="shape"/><feGaussianBlur result="effect1_foregroundBlur_4103_4678" stdDeviation=".898"/></filter><filter id="filter9_f_4103_4678" width="8.982" height="6.288" x="1020.4" y="41.319" color-interpolation-filters="sRGB" filterUnits="userSpaceOnUse"><feFlood flood-opacity="0" result="BackgroundImageFix"/><feBlend in="SourceGraphic" in2="BackgroundImageFix" result="shape"/><feGaussianBlur result="effect1_foregroundBlur_4103_4678" stdDeviation=".898"/></filter><filter id="filter10_f_4103_4678" width="8.982" height="7.186" x="1020.4" y="36.828" color-interpolation-filters="sRGB" filterUnits="userSpaceOnUse"><feFlood flood-opacity="0" result="BackgroundImageFix"/><feBlend in="SourceGraphic" in2="BackgroundImageFix" result="shape"/><feGaussianBlur result="effect1_foregroundBlur_4103_4678" stdDeviation=".898"/></filter><linearGradient id="paint0_linear_4103_4678" x1="1810.86" x2="1947.34" y1="1235.99" y2="1235.99" gradientUnits="userSpaceOnUse"><stop stop-color="#565f6d"/><stop offset=".173" stop-color="#2e353f"/><stop offset=".318" stop-color="#56606d"/><stop offset=".691" stop-color="#56606d"/><stop offset=".826" stop-color="#2e353f"/><stop offset="1" stop-color="#565f6d"/></linearGradient><linearGradient id="paint1_linear_4103_4678" x1="99.704" x2="236.178" y1="1235.99" y2="1235.99" gradientUnits="userSpaceOnUse"><stop stop-color="#565f6d"/><stop offset=".173" stop-color="#2e353f"/><stop offset=".318" stop-color="#56606d"/><stop offset=".691" stop-color="#56606d"/><stop offset=".826" stop-color="#2e353f"/><stop offset="1" stop-color="#565f6d"/></linearGradient><linearGradient id="paint2_linear_4103_4678" x1="1024" x2="1024" y1="1181.19" y2="1231.49" gradientUnits="userSpaceOnUse"><stop stop-color="#586170"/><stop offset=".193" stop-color="#56606c"/><stop offset=".376" stop-color="#4f5965"/><stop offset=".599" stop-color="#343c45"/><stop offset=".714" stop-color="#1b222c"/><stop offset=".852" stop-color="#161d27"/><stop offset=".931" stop-color="#444c57"/></linearGradient><linearGradient id="paint3_linear_4103_4678" x1="2048" x2="1818.05" y1="1207.11" y2="1207.11" gradientUnits="userSpaceOnUse"><stop stop-color="#212733" stop-opacity="0"/><stop offset=".26" stop-color="#212733"/><stop offset="1" stop-color="#212733" stop-opacity="0"/></linearGradient><linearGradient id="paint4_linear_4103_4678" x1="231.747" x2="0" y1="25.913" y2="25.913" gradientUnits="userSpaceOnUse"><stop stop-color="#212733" stop-opacity="0"/><stop offset=".26" stop-color="#212733"/><stop offset="1" stop-color="#212733" stop-opacity="0"/></linearGradient><linearGradient id="paint5_linear_4103_4678" x1="4.491" x2="30.54" y1="1185.76" y2="1185.76" gradientUnits="userSpaceOnUse"><stop offset=".088" stop-color="#fff" stop-opacity=".17"/><stop offset=".272" stop-color="#fff" stop-opacity=".65"/><stop offset=".49" stop-color="#fff" stop-opacity=".65"/><stop offset=".677" stop-color="#fff" stop-opacity=".19"/><stop offset="1" stop-color="#fff" stop-opacity="0"/></linearGradient><linearGradient id="paint6_linear_4103_4678" x1="2043.51" x2="2017.46" y1="1185.76" y2="1185.76" gradientUnits="userSpaceOnUse"><stop offset=".088" stop-color="#fff" stop-opacity=".17"/><stop offset=".272" stop-color="#fff" stop-opacity=".65"/><stop offset=".49" stop-color="#fff" stop-opacity=".65"/><stop offset=".677" stop-color="#fff" stop-opacity=".19"/><stop offset="1" stop-color="#fff" stop-opacity="0"/></linearGradient><linearGradient id="paint7_linear_4103_4678" x1="840.73" x2="1208.14" y1="1193.39" y2="1193.39" gradientUnits="userSpaceOnUse"><stop stop-color="#131a24"/><stop offset=".016" stop-color="#343e4a"/><stop offset=".036" stop-color="#626e7e"/><stop offset=".05" stop-color="#7f8a9c"/><stop offset=".479" stop-color="#7e889b"/><stop offset=".941" stop-color="#7f8a9c"/><stop offset=".97" stop-color="#626e7e"/><stop offset=".98" stop-color="#343e4a"/><stop offset="1" stop-color="#131a24"/></linearGradient><linearGradient id="paint8_linear_4103_4678" x1="1024.9" x2="1024.9" y1="1130.89" y2="1181.19" gradientUnits="userSpaceOnUse"><stop stop-color="#252525"/><stop offset="1" stop-color="#101010"/></linearGradient></defs></svg>